<svg width="120" height="120" viewBox="0 0 120 120" fill="none" xmlns="http://www.w3.org/2000/svg">
<g opacity="0.8" clip-path="url(#clip0_3692_5373)">
<path d="M116.792 59.146L113.812 55.7956C113.812 55.7955 113.812 55.7954 113.812 55.7953C110.777 52.4045 105.919 52.4078 102.908 55.7971L97.1455 62.2831L111.117 77.9935L116.794 71.6044L116.792 59.146ZM116.792 59.146C119.837 62.5707 119.841 68.1513 116.795 71.6031L116.792 59.146ZM56.3131 99.1692L56.3131 99.1694L53.2125 113.162L53.212 113.164C52.771 115.194 52.8079 117.267 53.3112 119.21L13.6998 119.22C6.75229 119.221 0.995818 112.845 0.993812 104.865L0.971337 15.4895C0.969331 7.5088 6.72259 1.13007 13.6702 1.12832L46.2389 1.12013L46.2463 30.3778C46.2474 34.736 49.3919 38.3688 53.4122 38.3677L79.3589 38.3612L79.3669 70.1135L59.9119 92.0114C58.1507 93.9938 56.9107 96.4769 56.3131 99.1692ZM63.7866 101.218C64.0235 100.151 64.4815 99.1565 65.1159 98.3347L65.4002 98.0147L91.7246 68.3848L105.696 84.095L79.2872 113.797L79.2871 113.797C78.5035 114.679 77.5369 115.295 76.4647 115.591L76.4626 115.592L64.0263 119.087L64.0236 119.088C63.1019 119.352 62.1331 119.06 61.432 118.272C60.7256 117.478 60.4329 116.331 60.6856 115.213L60.6861 115.211L63.7866 101.218ZM53.9449 2.00145L78.692 29.8279L53.9519 29.8341L53.9449 2.00145Z" fill="#692BEF" stroke="#692BEF" stroke-width="1.08362"/>
</g>
<defs>
<clipPath id="clip0_3692_5373">
<rect width="119.198" height="119.198" fill="white" transform="translate(0.425781 0.589844) rotate(-0.0144075)"/>
</clipPath>
</defs>
</svg>
