<svg width="285" height="214" viewBox="0 0 285 214" fill="none" xmlns="http://www.w3.org/2000/svg">
<g filter="url(#filter0_dddddd_72_19598)">
<path d="M84.0733 1.2206C84.488 1.21835 84.8987 1.21835 85.3144 1.21835H199.354C199.762 1.21835 200.176 1.21824 200.583 1.22049C200.865 1.22223 201.153 1.22698 201.437 1.23166C201.501 1.23271 201.565 1.23376 201.628 1.23477C202.388 1.24312 203.146 1.30954 203.896 1.43343C204.648 1.56038 205.377 1.79797 206.059 2.13835C207.422 2.83286 208.532 3.93376 209.231 5.28623C209.573 5.96006 209.81 6.68155 209.933 7.42596C210.06 8.17001 210.13 8.92236 210.144 9.67677C210.148 10.0216 210.148 10.3674 210.148 10.7122C210.157 11.1196 210.157 11.5279 210.157 11.9397V35.4694C210.157 35.8844 210.157 36.2906 210.148 36.6991C210.148 37.0482 210.148 37.3864 210.144 37.7356C210.13 38.4899 210.06 39.2423 209.933 39.9863C209.81 40.7311 209.574 41.4531 209.231 42.1272C208.884 42.7982 208.432 43.4106 207.892 43.9422C207.356 44.4783 206.737 44.9257 206.059 45.2674C205.377 45.6086 204.648 45.8477 203.896 45.9766C203.146 46.0995 202.388 46.1659 201.628 46.1753C201.283 46.183 200.929 46.1874 200.583 46.1874C200.176 46.1896 199.762 46.1896 199.354 46.1896H85.3144C84.8987 46.1896 84.488 46.1896 84.0734 46.1874C83.7263 46.1874 83.3819 46.183 83.0317 46.1753C82.2705 46.1654 81.5112 46.0989 80.76 45.9766C80.01 45.8486 79.2836 45.6095 78.6052 45.2674C77.926 44.9259 77.3065 44.4785 76.7703 43.9422C76.2292 43.4127 75.7782 42.7998 75.4347 42.1272C75.0898 41.4536 74.8509 40.7316 74.7262 39.9863C74.6 39.2424 74.5321 38.49 74.5231 37.7357C74.5159 37.4968 74.5131 37.2632 74.5102 37.0277C74.5089 36.9188 74.5076 36.8095 74.5059 36.6991V10.7122C74.5076 10.6019 74.509 10.4915 74.5103 10.381C74.5131 10.1462 74.5159 9.9113 74.5231 9.67688C74.5321 8.92254 74.6 8.17002 74.7262 7.42607C74.8512 6.68116 75.0902 5.95953 75.4347 5.28612C75.7783 4.61142 76.2293 3.99605 76.7703 3.46366C77.3085 2.92972 77.9276 2.48258 78.6052 2.13847C79.2836 1.79725 80.0101 1.5596 80.76 1.43354C81.5111 1.31017 82.2705 1.24376 83.0317 1.23488C83.1034 1.23375 83.1749 1.23258 83.2463 1.23141C83.5232 1.22688 83.7974 1.22239 84.0733 1.2206Z" fill="black"/>
</g>
<path d="M84.0785 45.2059C83.7331 45.2059 83.3961 45.2015 83.0534 45.1938C82.3435 45.1847 81.6353 45.1235 80.9346 45.0106C80.2812 44.8989 79.6482 44.6913 79.0565 44.3945C78.4703 44.1002 77.9356 43.7143 77.4729 43.2515C77.0035 42.7943 76.6127 42.2639 76.316 41.6815C76.016 41.0953 75.8084 40.4669 75.7004 39.8183C75.5838 39.1214 75.5208 38.4167 75.5118 37.7103C75.5045 37.4732 75.4951 36.6838 75.4951 36.6838V10.7121C75.4951 10.7121 75.5051 9.9348 75.5118 9.70635C75.5204 9.00109 75.5831 8.29751 75.6994 7.60169C75.8076 6.95132 76.0154 6.32116 76.3155 5.73303C76.6111 5.15098 76.9997 4.62021 77.4662 4.16128C77.9323 3.69799 78.4687 3.31008 79.056 3.0117C79.6463 2.7159 80.2781 2.50977 80.9302 2.40021C81.6332 2.28623 82.3439 2.22463 83.0562 2.21594L84.0791 2.202H200.577L201.612 2.21627C202.318 2.22459 203.023 2.2857 203.719 2.39908C204.378 2.51005 205.016 2.71766 205.613 3.01508C206.79 3.61638 207.747 4.56771 208.351 5.73572C208.646 6.31983 208.851 6.94488 208.958 7.58966C209.075 8.29118 209.141 9.00027 209.155 9.7113C209.158 10.0297 209.158 10.3717 209.158 10.7121C209.167 11.1337 209.167 11.535 209.167 11.9396V35.4693C209.167 35.8777 209.167 36.2763 209.158 36.6781C209.158 37.0437 209.158 37.3786 209.154 37.7233C209.14 38.4217 209.076 39.1182 208.96 39.8072C208.854 40.4605 208.648 41.0937 208.348 41.6847C208.049 42.2608 207.66 42.7866 207.196 43.2426C206.733 43.7079 206.198 44.096 205.61 44.3922C205.015 44.6913 204.377 44.8997 203.719 45.0104C203.019 45.1239 202.31 45.1852 201.6 45.1937C201.261 45.2016 200.922 45.2056 200.583 45.2058L199.354 45.208L84.0785 45.2059Z" fill="black"/>
<path d="M102.584 24.0424C102.596 23.104 102.847 22.184 103.314 21.3678C103.781 20.5516 104.449 19.8659 105.255 19.3744C104.743 18.6491 104.068 18.0521 103.282 17.631C102.497 17.2099 101.623 16.9762 100.731 16.9485C98.8272 16.7503 96.9818 18.0782 96.0117 18.0782C95.023 18.0782 93.5295 16.9682 91.9212 17.001C90.881 17.0343 89.8671 17.3343 88.9785 17.8718C88.0899 18.4093 87.3568 19.1659 86.8507 20.0679C84.6583 23.8325 86.2936 29.3651 88.3938 32.4081C89.4446 33.8982 90.6725 35.5626 92.2793 35.5036C93.8516 35.4389 94.4388 34.5091 96.3369 34.5091C98.2174 34.5091 98.7683 35.5036 100.408 35.466C102.095 35.4389 103.158 33.9694 104.172 32.4652C104.927 31.4035 105.508 30.23 105.893 28.9884C104.913 28.5772 104.076 27.8889 103.488 27.0094C102.899 26.1298 102.585 25.098 102.584 24.0424ZM99.4873 14.9472C100.407 13.8519 100.86 12.4441 100.751 11.0228C99.3452 11.1692 98.047 11.8354 97.1146 12.8886C96.6587 13.4032 96.3096 14.0018 96.0871 14.6503C95.8647 15.2987 95.7732 15.9843 95.8181 16.6678C96.5211 16.675 97.2166 16.5239 97.8521 16.2258C98.4877 15.9278 99.0468 15.4906 99.4873 14.9472ZM122.46 31.7314H117.094L115.805 35.5049H113.532L118.615 21.5436H120.976L126.059 35.5049H123.747L122.46 31.7314ZM117.65 29.99H121.903L119.806 23.8658H119.747L117.65 29.99ZM137.035 30.4161C137.035 33.5791 135.328 35.6114 132.752 35.6114C132.099 35.6453 131.45 35.4962 130.879 35.1812C130.308 34.8663 129.838 34.3982 129.522 33.8305H129.474V38.8722H127.367V25.326H129.406V27.0191H129.445C129.775 26.4541 130.253 25.9885 130.828 25.6716C131.404 25.3547 132.055 25.1985 132.713 25.2195C135.318 25.2195 137.035 27.2617 137.035 30.416V30.4161ZM134.869 30.4161C134.869 28.3553 133.796 27.0004 132.157 27.0004C130.548 27.0004 129.465 28.3837 129.465 30.416C129.465 32.467 130.548 33.8405 132.157 33.8405C133.796 33.8405 134.869 32.4955 134.869 30.416V30.4161ZM148.331 30.4161C148.331 33.5791 146.624 35.6114 144.048 35.6114C143.395 35.6452 142.746 35.4961 142.175 35.1812C141.604 34.8662 141.134 34.3981 140.819 33.8305H140.77V38.8722H138.663V25.326H140.702V27.0191H140.741C141.071 26.4541 141.549 25.9885 142.124 25.6716C142.7 25.3547 143.351 25.1985 144.009 25.2195C146.614 25.2195 148.331 27.2617 148.331 30.416V30.4161ZM146.166 30.4161C146.166 28.3553 145.092 27.0004 143.453 27.0004C141.844 27.0004 140.761 28.3837 140.761 30.416C140.761 32.467 141.844 33.8405 143.453 33.8405C145.092 33.8405 146.166 32.4955 146.166 30.416V30.4161ZM155.797 31.615C155.953 32.9995 157.309 33.9085 159.162 33.9085C160.938 33.9085 162.215 32.9995 162.215 31.751C162.215 30.6674 161.445 30.0185 159.621 29.5739L157.796 29.138C155.211 28.5187 154.011 27.3198 154.011 25.3742C154.011 22.9653 156.128 21.3109 159.133 21.3109C162.108 21.3109 164.147 22.9653 164.216 25.3742H162.089C161.962 23.981 160.8 23.14 159.103 23.14C157.406 23.14 156.245 23.9909 156.245 25.2293C156.245 26.2164 156.987 26.7972 158.801 27.2418L160.352 27.6195C163.24 28.2969 164.44 29.4476 164.44 31.4897C164.44 34.1017 162.343 35.7376 159.006 35.7376C155.884 35.7376 153.776 34.14 153.64 31.6149L155.797 31.615ZM168.987 22.9172V25.326H170.939V26.9806H168.987V32.5921C168.987 33.4639 169.378 33.8701 170.236 33.8701C170.467 33.8661 170.699 33.8499 170.929 33.8217V35.4666C170.543 35.538 170.151 35.5703 169.759 35.563C167.681 35.563 166.87 34.7891 166.87 32.815V26.9806H165.378V25.326H166.87V22.9172H168.987ZM172.069 30.4161C172.069 27.2133 173.971 25.2009 176.937 25.2009C179.912 25.2009 181.805 27.2133 181.805 30.4161C181.805 33.6275 179.922 35.6312 176.937 35.6312C173.952 35.6312 172.069 33.6275 172.069 30.4161ZM179.659 30.4161C179.659 28.2191 178.644 26.9224 176.937 26.9224C175.23 26.9224 174.215 28.2289 174.215 30.4161C174.215 32.6218 175.23 33.9085 176.937 33.9085C178.644 33.9085 179.659 32.6218 179.659 30.4161ZM183.542 25.326H185.551V27.0585H185.6C185.736 26.5174 186.056 26.0392 186.505 25.7043C186.955 25.3694 187.507 25.1982 188.069 25.2195C188.312 25.2187 188.554 25.2448 188.791 25.2974V27.2518C188.484 27.1589 188.165 27.1163 187.844 27.1255C187.538 27.1132 187.233 27.1667 186.95 27.2824C186.667 27.3981 186.412 27.5732 186.203 27.7956C185.995 28.0181 185.837 28.2827 185.742 28.5713C185.646 28.8599 185.614 29.1656 185.649 29.4674V35.5049H183.542V25.326ZM198.504 32.5152C198.22 34.3631 196.406 35.6312 194.085 35.6312C191.099 35.6312 189.246 33.6473 189.246 30.4643C189.246 27.2716 191.109 25.2009 193.996 25.2009C196.836 25.2009 198.621 27.1354 198.621 30.2217V30.9375H191.372V31.0638C191.339 31.4384 191.386 31.8158 191.511 32.1709C191.636 32.526 191.835 32.8506 192.097 33.1233C192.358 33.396 192.674 33.6105 193.026 33.7525C193.377 33.8945 193.754 33.9608 194.133 33.947C194.631 33.9933 195.131 33.8789 195.558 33.621C195.985 33.363 196.316 32.9752 196.503 32.5152H198.504ZM191.382 29.4773H196.513C196.532 29.1405 196.481 28.8034 196.362 28.4872C196.243 28.1711 196.06 27.8826 195.824 27.64C195.587 27.3975 195.303 27.2059 194.988 27.0775C194.674 26.9491 194.336 26.8866 193.996 26.8938C193.653 26.8918 193.313 26.9572 192.995 27.0862C192.678 27.2152 192.389 27.4053 192.146 27.6455C191.903 27.8857 191.711 28.1712 191.58 28.4856C191.448 28.8 191.381 29.1371 191.382 29.4773ZM117.386 11.0348C117.827 11.0034 118.27 11.0695 118.683 11.2286C119.096 11.3876 119.468 11.6355 119.772 11.9543C120.077 12.2732 120.306 12.6552 120.444 13.0726C120.582 13.49 120.624 13.9325 120.568 14.3682C120.568 16.5113 119.4 17.7433 117.386 17.7433H114.942V11.0347L117.386 11.0348ZM115.993 16.7945H117.268C117.584 16.8132 117.9 16.7619 118.193 16.6442C118.486 16.5266 118.749 16.3457 118.962 16.1146C119.176 15.8834 119.335 15.608 119.428 15.3082C119.521 15.0085 119.545 14.692 119.499 14.3818C119.542 14.0728 119.515 13.7583 119.421 13.4607C119.326 13.1632 119.167 12.89 118.954 12.6607C118.741 12.4314 118.479 12.2518 118.188 12.1346C117.896 12.0174 117.582 11.9655 117.268 11.9828H115.993V16.7945ZM121.755 15.2097C121.723 14.877 121.761 14.5413 121.868 14.2242C121.974 13.9071 122.146 13.6155 122.373 13.3682C122.599 13.1209 122.876 12.9233 123.184 12.788C123.492 12.6528 123.825 12.5829 124.162 12.5829C124.499 12.5829 124.832 12.6528 125.141 12.788C125.449 12.9233 125.725 13.1209 125.952 13.3682C126.178 13.6155 126.35 13.9071 126.457 14.2242C126.563 14.5413 126.602 14.877 126.569 15.2097C126.602 15.5428 126.564 15.879 126.458 16.1967C126.352 16.5144 126.18 16.8066 125.954 17.0545C125.727 17.3024 125.45 17.5005 125.142 17.636C124.833 17.7716 124.5 17.8416 124.162 17.8416C123.825 17.8416 123.491 17.7716 123.183 17.636C122.874 17.5005 122.598 17.3024 122.371 17.0545C122.144 16.8066 121.972 16.5144 121.866 16.1967C121.76 15.879 121.722 15.5428 121.755 15.2097ZM125.533 15.2097C125.533 14.1123 125.036 13.4706 124.164 13.4706C123.288 13.4706 122.796 14.1123 122.796 15.2097C122.796 16.3159 123.288 16.9527 124.164 16.9527C125.036 16.9527 125.533 16.3115 125.533 15.2097ZM132.969 17.7432H131.924L130.869 14.0146H130.789L129.739 17.7432H128.704L127.297 12.6805H128.319L129.233 16.5436H129.308L130.358 12.6805H131.324L132.374 16.5436H132.453L133.363 12.6805H134.371L132.969 17.7432ZM135.554 12.6806H136.524V13.4848H136.599C136.727 13.196 136.942 12.9538 137.215 12.7921C137.488 12.6304 137.806 12.5573 138.123 12.5828C138.371 12.5643 138.62 12.6015 138.852 12.6915C139.084 12.7816 139.293 12.9222 139.462 13.1031C139.632 13.2839 139.758 13.5003 139.832 13.7362C139.906 13.9721 139.926 14.2214 139.889 14.4658V17.7431H138.882V14.7167C138.882 13.9032 138.525 13.4986 137.78 13.4986C137.612 13.4908 137.443 13.5193 137.287 13.582C137.13 13.6448 136.989 13.7404 136.874 13.8622C136.758 13.9841 136.67 14.1293 136.616 14.288C136.562 14.4467 136.544 14.615 136.562 14.7815V17.7432H135.554V12.6806ZM141.495 10.7043H142.502V17.7432H141.495V10.7043ZM143.902 15.2097C143.87 14.877 143.909 14.5413 144.015 14.2241C144.121 13.9069 144.293 13.6153 144.52 13.3679C144.747 13.1206 145.023 12.9229 145.331 12.7877C145.639 12.6525 145.973 12.5826 146.31 12.5826C146.647 12.5826 146.98 12.6525 147.288 12.7877C147.597 12.9229 147.873 13.1206 148.1 13.3679C148.326 13.6153 148.498 13.9069 148.605 14.2241C148.711 14.5413 148.749 14.877 148.717 15.2097C148.75 15.5428 148.712 15.8789 148.606 16.1965C148.5 16.5141 148.328 16.8062 148.101 17.0539C147.874 17.3017 147.598 17.4997 147.289 17.6352C146.981 17.7707 146.647 17.8407 146.31 17.8407C145.972 17.8407 145.639 17.7707 145.33 17.6352C145.022 17.4997 144.745 17.3017 144.519 17.0539C144.292 16.8062 144.12 16.5141 144.014 16.1965C143.908 15.8789 143.87 15.5428 143.902 15.2097ZM147.681 15.2097C147.681 14.1123 147.183 13.4706 146.311 13.4706C145.435 13.4706 144.943 14.1123 144.943 15.2097C144.943 16.3159 145.436 16.9527 146.311 16.9527C147.183 16.9527 147.681 16.3115 147.681 15.2097ZM149.778 16.3115C149.778 15.4002 150.462 14.8748 151.676 14.8001L153.059 14.7211V14.2841C153.059 13.7494 152.703 13.4475 152.014 13.4475C151.452 13.4475 151.062 13.6523 150.95 14.0102H149.975C150.078 13.1406 150.903 12.5829 152.061 12.5829C153.34 12.5829 154.062 13.2148 154.062 14.2841V17.7432H153.092V17.0317H153.013C152.851 17.2869 152.624 17.495 152.354 17.6346C152.085 17.7743 151.783 17.8405 151.479 17.8266C151.265 17.8487 151.048 17.826 150.844 17.76C150.639 17.694 150.45 17.5862 150.29 17.4434C150.129 17.3007 150.001 17.1262 149.913 16.9313C149.825 16.7363 149.779 16.5252 149.778 16.3115ZM153.059 15.8789V15.4556L151.813 15.5346C151.11 15.5813 150.791 15.8185 150.791 16.2647C150.791 16.7204 151.189 16.9856 151.737 16.9856C151.898 17.0018 152.06 16.9857 152.214 16.9384C152.368 16.891 152.511 16.8134 152.635 16.7102C152.758 16.6069 152.859 16.4801 152.932 16.3373C153.005 16.1945 153.048 16.0386 153.059 15.8789ZM155.386 15.2097C155.386 13.61 156.215 12.5967 157.505 12.5967C157.824 12.5821 158.141 12.6579 158.418 12.8151C158.695 12.9724 158.921 13.2047 159.07 13.4848H159.146V10.7042H160.153V17.7431H159.188V16.9431H159.108C158.947 17.2214 158.713 17.4508 158.431 17.6065C158.148 17.7622 157.828 17.8383 157.505 17.8265C156.206 17.8265 155.386 16.8131 155.386 15.2096V15.2097ZM156.427 15.2097C156.427 16.2834 156.937 16.9296 157.79 16.9296C158.64 16.9296 159.164 16.2742 159.164 15.214C159.164 14.159 158.634 13.4942 157.79 13.4942C156.943 13.4942 156.427 14.1447 156.427 15.2097ZM164.321 15.2097C164.289 14.877 164.327 14.5413 164.434 14.2242C164.54 13.9071 164.712 13.6155 164.939 13.3682C165.165 13.1209 165.441 12.9233 165.75 12.788C166.058 12.6528 166.391 12.5829 166.728 12.5829C167.065 12.5829 167.398 12.6528 167.706 12.788C168.015 12.9233 168.291 13.1209 168.518 13.3682C168.744 13.6155 168.916 13.9071 169.023 14.2242C169.129 14.5413 169.167 14.877 169.135 15.2097C169.168 15.5428 169.13 15.879 169.024 16.1967C168.918 16.5144 168.746 16.8066 168.519 17.0545C168.293 17.3024 168.016 17.5005 167.708 17.636C167.399 17.7716 167.066 17.8416 166.728 17.8416C166.391 17.8416 166.057 17.7716 165.748 17.636C165.44 17.5005 165.163 17.3024 164.937 17.0545C164.71 16.8066 164.538 16.5144 164.432 16.1967C164.326 15.879 164.288 15.5428 164.321 15.2097ZM168.099 15.2097C168.099 14.1123 167.602 13.4706 166.73 13.4706C165.854 13.4706 165.362 14.1123 165.362 15.2097C165.362 16.3159 165.854 16.9527 166.73 16.9527C167.602 16.9527 168.099 16.3115 168.099 15.2097ZM170.487 12.6806H171.457V13.4848H171.532C171.66 13.196 171.875 12.9538 172.148 12.7921C172.421 12.6304 172.738 12.5573 173.055 12.5828C173.304 12.5643 173.553 12.6015 173.785 12.6915C174.017 12.7816 174.225 12.9222 174.395 13.1031C174.565 13.2839 174.691 13.5003 174.765 13.7362C174.839 13.9721 174.859 14.2214 174.822 14.4658V17.7431H173.815V14.7167C173.815 13.9032 173.458 13.4986 172.713 13.4986C172.545 13.4908 172.376 13.5193 172.22 13.582C172.063 13.6448 171.922 13.7404 171.807 13.8622C171.691 13.9841 171.603 14.1293 171.549 14.288C171.495 14.4467 171.477 14.615 171.494 14.7815V17.7432H170.487L170.487 12.6806ZM180.515 11.4202V12.7037H181.62V13.5452H180.515V16.1484C180.515 16.6787 180.735 16.911 181.236 16.911C181.365 16.9105 181.493 16.9028 181.62 16.8878V17.7201C181.439 17.7522 181.256 17.7693 181.072 17.7712C179.952 17.7712 179.506 17.3803 179.506 16.4043V13.5452H178.696V12.7036H179.506V11.4203L180.515 11.4202ZM182.996 10.7043H183.995V13.4942H184.075C184.209 13.2026 184.43 12.9591 184.708 12.7968C184.987 12.6345 185.309 12.5613 185.631 12.5872C185.878 12.5739 186.125 12.6148 186.355 12.707C186.584 12.7993 186.79 12.9406 186.958 13.1209C187.126 13.3011 187.251 13.5159 187.326 13.75C187.401 13.984 187.422 14.2314 187.389 14.4747V17.7432H186.381V14.7211C186.381 13.9124 186.001 13.5029 185.289 13.5029C185.116 13.4889 184.942 13.5125 184.779 13.5721C184.616 13.6318 184.468 13.726 184.346 13.8483C184.223 13.9705 184.129 14.1178 184.07 14.2799C184.011 14.4419 183.988 14.6148 184.004 14.7864V17.7432H182.996V10.7043ZM193.263 16.3762C193.126 16.8389 192.83 17.2391 192.425 17.5069C192.021 17.7746 191.535 17.8929 191.051 17.8409C190.715 17.8497 190.381 17.7858 190.072 17.6537C189.763 17.5215 189.487 17.3243 189.262 17.0757C189.038 16.8271 188.871 16.533 188.773 16.2139C188.674 15.8948 188.647 15.5583 188.693 15.2278C188.648 14.8963 188.676 14.5591 188.774 14.239C188.872 13.9189 189.038 13.6235 189.261 13.3727C189.485 13.1219 189.76 12.9215 190.068 12.7853C190.376 12.649 190.71 12.58 191.047 12.5828C192.467 12.5828 193.324 13.5452 193.324 15.135V15.4836H189.719V15.5396C189.704 15.7254 189.727 15.9124 189.789 16.0886C189.85 16.2648 189.948 16.4264 190.076 16.5629C190.204 16.6995 190.359 16.808 190.532 16.8815C190.705 16.9551 190.891 16.992 191.079 16.9899C191.32 17.0186 191.564 16.9756 191.78 16.8663C191.997 16.757 192.175 16.5864 192.293 16.3762H193.263ZM189.719 14.7447H192.298C192.31 14.5748 192.287 14.4041 192.229 14.2437C192.172 14.0832 192.081 13.9365 191.962 13.813C191.844 13.6895 191.701 13.5919 191.542 13.5265C191.384 13.4611 191.213 13.4293 191.041 13.4332C190.867 13.4311 190.694 13.4635 190.533 13.5287C190.371 13.5938 190.225 13.6903 190.102 13.8126C189.978 13.9348 189.881 14.0802 189.815 14.2403C189.75 14.4004 189.717 14.5719 189.719 14.7447Z" fill="white"/>
<defs>
<filter id="filter0_dddddd_72_19598" x="0.252342" y="0.0151715" width="284.158" height="213.245" filterUnits="userSpaceOnUse" color-interpolation-filters="sRGB">
<feFlood flood-opacity="0" result="BackgroundImageFix"/>
<feColorMatrix in="SourceAlpha" type="matrix" values="0 0 0 0 0 0 0 0 0 0 0 0 0 0 0 0 0 0 127 0" result="hardAlpha"/>
<feOffset dy="1.71883"/>
<feGaussianBlur stdDeviation="1.46101"/>
<feColorMatrix type="matrix" values="0 0 0 0 0.219608 0 0 0 0 0.219608 0 0 0 0 0.219608 0 0 0 0.0240741 0"/>
<feBlend mode="normal" in2="BackgroundImageFix" result="effect1_dropShadow_72_19598"/>
<feColorMatrix in="SourceAlpha" type="matrix" values="0 0 0 0 0 0 0 0 0 0 0 0 0 0 0 0 0 0 127 0" result="hardAlpha"/>
<feOffset dy="7.56286"/>
<feGaussianBlur stdDeviation="3.02514"/>
<feColorMatrix type="matrix" values="0 0 0 0 0.219608 0 0 0 0 0.219608 0 0 0 0 0.219608 0 0 0 0.0392593 0"/>
<feBlend mode="normal" in2="effect1_dropShadow_72_19598" result="effect2_dropShadow_72_19598"/>
<feColorMatrix in="SourceAlpha" type="matrix" values="0 0 0 0 0 0 0 0 0 0 0 0 0 0 0 0 0 0 127 0" result="hardAlpha"/>
<feOffset dy="18.5634"/>
<feGaussianBlur stdDeviation="6.0331"/>
<feColorMatrix type="matrix" values="0 0 0 0 0.219608 0 0 0 0 0.219608 0 0 0 0 0.219608 0 0 0 0.05 0"/>
<feBlend mode="normal" in2="effect2_dropShadow_72_19598" result="effect3_dropShadow_72_19598"/>
<feColorMatrix in="SourceAlpha" type="matrix" values="0 0 0 0 0 0 0 0 0 0 0 0 0 0 0 0 0 0 127 0" result="hardAlpha"/>
<feOffset dy="35.7517"/>
<feGaussianBlur stdDeviation="11.8256"/>
<feColorMatrix type="matrix" values="0 0 0 0 0.219608 0 0 0 0 0.219608 0 0 0 0 0.219608 0 0 0 0.0607407 0"/>
<feBlend mode="normal" in2="effect3_dropShadow_72_19598" result="effect4_dropShadow_72_19598"/>
<feColorMatrix in="SourceAlpha" type="matrix" values="0 0 0 0 0 0 0 0 0 0 0 0 0 0 0 0 0 0 127 0" result="hardAlpha"/>
<feOffset dy="60.1591"/>
<feGaussianBlur stdDeviation="21.7432"/>
<feColorMatrix type="matrix" values="0 0 0 0 0.219608 0 0 0 0 0.219608 0 0 0 0 0.219608 0 0 0 0.0759259 0"/>
<feBlend mode="normal" in2="effect4_dropShadow_72_19598" result="effect5_dropShadow_72_19598"/>
<feColorMatrix in="SourceAlpha" type="matrix" values="0 0 0 0 0 0 0 0 0 0 0 0 0 0 0 0 0 0 127 0" result="hardAlpha"/>
<feOffset dy="92.8169"/>
<feGaussianBlur stdDeviation="37.1268"/>
<feColorMatrix type="matrix" values="0 0 0 0 0.219608 0 0 0 0 0.219608 0 0 0 0 0.219608 0 0 0 0.1 0"/>
<feBlend mode="normal" in2="effect5_dropShadow_72_19598" result="effect6_dropShadow_72_19598"/>
<feBlend mode="normal" in="SourceGraphic" in2="effect6_dropShadow_72_19598" result="shape"/>
</filter>
</defs>
</svg>
