<svg width="285" height="214" viewBox="0 0 285 214" fill="none" xmlns="http://www.w3.org/2000/svg">
<g filter="url(#filter0_dddddd_72_19602)">
<path d="M204.926 1.21832H79.323C76.5597 1.21832 74.2988 3.74796 74.2988 6.83977V40.5682C74.2988 43.6601 76.5597 46.1897 79.323 46.1897H204.926C207.689 46.1897 209.95 43.6601 209.95 40.5683V6.83977C209.95 3.74796 207.689 1.21832 204.926 1.21832Z" fill="black"/>
<path fill-rule="evenodd" clip-rule="evenodd" d="M79.323 1.21832H204.926C207.689 1.21832 209.95 3.74796 209.95 6.83977V40.5683C209.95 43.6601 207.689 46.1897 204.926 46.1897H79.323C76.5597 46.1897 74.2988 43.6601 74.2988 40.5682V6.83977C74.2988 3.74796 76.5597 1.21832 79.323 1.21832Z" fill="black"/>
</g>
<path d="M204.355 45.5315H79.9198C77.2118 45.5315 74.9961 43.0766 74.9961 40.0763V7.34498C74.9961 4.34458 77.2117 1.88974 79.9198 1.88974H204.355C207.063 1.88974 209.278 4.34458 209.278 7.34498V40.0762C209.278 43.0766 207.063 45.5315 204.355 45.5315Z" fill="black"/>
<path d="M121.947 12.7349C121.947 13.6768 121.698 14.4269 121.199 14.9865C120.632 15.6518 119.892 15.9848 118.984 15.9848C118.114 15.9848 117.374 15.6475 116.765 14.972C116.156 14.297 115.852 13.4599 115.852 12.4612C115.852 11.4621 116.156 10.6255 116.765 9.94999C117.374 9.27504 118.114 8.93726 118.984 8.93726C119.416 8.93726 119.829 9.03174 120.221 9.22016C120.614 9.40904 120.929 9.65976 121.164 9.97374L120.634 10.567C120.235 10.0335 119.686 9.76688 118.984 9.76688C118.349 9.76688 117.8 10.0164 117.337 10.5157C116.874 11.0155 116.642 11.6637 116.642 12.4612C116.642 13.2588 116.874 13.9069 117.337 14.4068C117.8 14.9061 118.349 15.1556 118.984 15.1556C119.657 15.1556 120.218 14.9048 120.668 14.4024C120.959 14.0751 121.128 13.6202 121.173 13.0361H118.984V12.2258H121.905C121.933 12.402 121.947 12.5711 121.947 12.7349" fill="white"/>
<path d="M121.946 12.7349H121.846C121.845 13.6554 121.605 14.3703 121.126 14.907L121.125 14.9079L121.125 14.9088C120.576 15.5512 119.87 15.871 118.983 15.8723C118.136 15.871 117.427 15.5477 116.835 14.8925C116.244 14.2359 115.952 13.4344 115.951 12.4612C115.952 11.4876 116.244 10.6865 116.835 10.0304C117.427 9.37473 118.136 9.05104 118.983 9.04968C119.401 9.04968 119.8 9.14114 120.181 9.32334C120.561 9.50696 120.862 9.74757 121.086 10.0463L121.163 9.97374L121.092 9.89426L120.562 10.488L120.633 10.567L120.71 10.4951C120.293 9.93508 119.706 9.65278 118.983 9.65445C118.324 9.65354 117.745 9.91669 117.267 10.435C116.783 10.9549 116.54 11.6395 116.541 12.4612C116.54 13.283 116.783 13.9676 117.267 14.4876C117.745 15.0058 118.324 15.2689 118.983 15.268C119.678 15.2694 120.271 15.0054 120.737 14.4819C121.049 14.1322 121.226 13.6479 121.272 13.0457L121.282 12.9237H119.083V12.3382H121.904V12.2258L121.805 12.2456C121.833 12.4161 121.846 12.5781 121.846 12.7349H122.047C122.047 12.564 122.032 12.3884 122.003 12.2057L121.988 12.1134H118.882V13.1485H121.172V13.0361L121.072 13.0264C121.028 13.5922 120.867 14.0182 120.595 14.323C120.164 14.8043 119.634 15.0418 118.983 15.0432C118.371 15.0423 117.853 14.8068 117.406 14.326C116.963 13.8468 116.743 13.2351 116.742 12.4612C116.743 11.6874 116.963 11.0757 117.406 10.5965C117.853 10.1156 118.371 9.88021 118.983 9.8793C119.662 9.88112 120.175 10.1323 120.556 10.6395L120.627 10.7335L121.234 10.0533L121.299 9.98041L121.24 9.90168C120.993 9.57239 120.664 9.31101 120.26 9.11698C119.855 8.92235 119.427 8.82483 118.983 8.82483C118.089 8.82397 117.318 9.17529 116.693 9.87056C116.065 10.5645 115.749 11.4367 115.75 12.4612C115.749 13.4853 116.065 14.3581 116.693 15.0524C117.318 15.7472 118.089 16.0981 118.983 16.0972C119.913 16.0981 120.685 15.7524 121.27 15.0642L121.198 14.9865L121.269 15.066C121.789 14.4841 122.047 13.698 122.047 12.7349H121.946H121.946ZM126.578 9.9171H123.832V12.0559H126.308V12.8665H123.832V15.0054H126.578V15.8341H123.058V9.08839H126.578V9.9171Z" fill="white"/>
<path d="M126.579 9.91706V9.80463H123.733V12.1683H126.209V12.7538L123.733 12.7541V15.1178H126.479V15.7216H123.16V9.20077H126.479V9.91706H126.579V9.80463V9.91706H126.68V8.97592H122.959V15.9465H126.68V14.8929H123.934V12.9789H126.41V11.9435H123.934V10.0295H126.68V9.91706H126.579ZM129.846 15.8341H129.071V9.91701H127.387V9.0883H131.53V9.91701H129.846V15.834" fill="white"/>
<path d="M129.845 15.8341V15.7216H129.17V9.80465H127.486V9.20084H131.428V9.80465H129.744V15.8341H129.845V15.7216V15.8341H129.945V10.0295H131.629V8.97594H127.285V10.0294H128.969V15.9464H129.945V15.834H129.845V15.8341ZM134.526 15.8341V9.08831H135.301V15.834H134.526" fill="white"/>
<path d="M134.526 15.8341H134.627V9.20077H135.2V15.7216H134.526V15.834H134.627H134.526V15.9465H135.401V8.97592H134.426V15.9465H134.526V15.834V15.8341ZM138.737 15.8341H137.962V9.91701H136.278V9.0883H140.421V9.91701H138.737V15.834" fill="white"/>
<path d="M138.737 15.8341V15.7217H138.062V9.80469H136.379V9.20088H140.321V9.80469H138.637V15.8341H138.737V15.7217V15.8341H138.838V10.0295H140.522V8.97598H136.178V10.0295H137.862V15.9465H138.838V15.834H138.737V15.8341ZM144.415 14.3976C144.862 14.9031 145.408 15.1556 146.053 15.1556C146.699 15.1556 147.245 14.9031 147.691 14.3976C148.137 13.8922 148.361 13.246 148.361 12.4612C148.361 11.6765 148.137 11.0304 147.691 10.5249C147.245 10.0194 146.699 9.76689 146.053 9.76689C145.408 9.76689 144.862 10.0194 144.415 10.5249C143.97 11.0304 143.746 11.6765 143.746 12.4612C143.746 13.246 143.97 13.8922 144.415 14.3976ZM148.264 14.9623C147.671 15.6443 146.934 15.9848 146.053 15.9848C145.172 15.9848 144.435 15.6443 143.843 14.9623C143.25 14.2811 142.955 13.4473 142.955 12.4612C142.955 11.4752 143.25 10.6412 143.843 9.96016C144.435 9.27803 145.172 8.93727 146.053 8.93727C146.929 8.93727 147.664 9.27985 148.26 9.96456C148.855 10.6492 149.152 11.4814 149.152 12.4612C149.152 13.4473 148.855 14.2811 148.264 14.9623Z" fill="white"/>
<path d="M144.414 14.3976L144.343 14.4766C144.805 15.0023 145.383 15.2694 146.052 15.268C146.721 15.2694 147.299 15.0023 147.761 14.4766C148.227 13.9504 148.461 13.2697 148.461 12.4612C148.461 11.6528 148.227 10.972 147.761 10.4458C147.299 9.92013 146.721 9.65314 146.052 9.65445C145.383 9.65314 144.805 9.92013 144.343 10.4458C143.878 10.972 143.643 11.6528 143.644 12.4612C143.643 13.2697 143.878 13.9504 144.343 14.4766L144.414 14.3976L144.486 14.3185C144.059 13.8332 143.846 13.2227 143.845 12.4612C143.846 11.6998 144.059 11.0893 144.486 10.6039C144.916 10.1187 145.429 9.88067 146.052 9.87935C146.674 9.88067 147.189 10.1187 147.618 10.6039C148.045 11.0893 148.258 11.6998 148.259 12.4612C148.258 13.2227 148.045 13.8332 147.618 14.3185C147.189 14.8038 146.674 15.0418 146.052 15.0431C145.429 15.0418 144.916 14.8038 144.486 14.3185L144.414 14.3976ZM148.263 14.9623L148.191 14.8842C147.615 15.5447 146.91 15.871 146.052 15.8723C145.194 15.871 144.489 15.5447 143.914 14.8842L143.911 14.8807L143.914 14.8842C143.339 14.2214 143.055 13.4222 143.054 12.4612C143.055 11.5003 143.339 10.701 143.914 10.0383C144.489 9.37776 145.194 9.05105 146.052 9.04973C146.905 9.05105 147.608 9.37912 148.187 10.0431C148.764 10.7089 149.049 11.5069 149.05 12.4612C149.049 13.4222 148.765 14.2214 148.191 14.8842L148.263 14.9623L148.335 15.0404C148.944 14.3405 149.252 13.4722 149.251 12.4612C149.252 11.456 148.943 10.5895 148.331 9.88643C147.719 9.18055 146.952 8.82362 146.052 8.82483C145.148 8.82362 144.378 9.17888 143.77 9.88203V9.88152C143.16 10.582 142.853 11.4503 142.854 12.4612C142.853 13.4722 143.16 14.3405 143.77 15.0409L143.773 15.0441L143.77 15.0404C144.378 15.7436 145.148 16.0981 146.052 16.0972C146.956 16.0981 147.725 15.7436 148.335 15.0404L148.263 14.9623ZM150.238 15.8341V9.08834H151.181L154.111 14.336H154.144L154.111 13.036V9.08834H154.886V15.834H154.078L151.012 10.332H150.979L151.012 11.6325V15.834H150.238" fill="white"/>
<path d="M150.239 15.8341H150.34V9.20079H151.126L154.056 14.4485H154.249L154.213 13.0344V9.20084H154.787V15.7216H154.135L151.069 10.2196H150.877L150.913 11.6343V15.7216H150.239V15.8341H150.34H150.239V15.9465H151.114V11.6307L151.08 10.329L150.98 10.3321V10.4445H151.013V10.3321L150.928 10.3918L154.023 15.9465H154.988V8.97594H154.012V13.0374L154.045 14.3391L154.146 14.3361V14.2236H154.112V14.3361L154.197 14.2764L151.238 8.97594H150.139V15.9465H150.239V15.8341L150.239 15.8341ZM181.751 34.9469H183.626V20.892H181.751L181.751 34.9469ZM198.639 25.9549L196.49 32.0484H196.426L194.195 25.9549H192.175L195.52 34.4717L193.613 39.2091H195.57L200.724 25.9549L198.639 25.9549ZM188.006 33.3506C187.391 33.3506 186.535 33.0071 186.535 32.1569C186.535 31.0721 187.602 30.6562 188.523 30.6562C189.348 30.6562 189.735 30.8551 190.236 31.1266C190.09 32.4283 189.088 33.3506 188.006 33.3506ZM188.232 25.6474C186.875 25.6474 185.469 26.3167 184.887 27.7994L186.551 28.5767C186.907 27.7994 187.569 27.546 188.265 27.546C189.234 27.546 190.22 28.1973 190.236 29.3545V29.499C189.896 29.282 189.17 28.9566 188.281 28.9566C186.487 28.9566 184.66 30.0593 184.66 32.1208C184.66 34.0014 186.131 35.213 187.779 35.213C189.04 35.213 189.735 34.5802 190.172 33.8389H190.236V34.9237H192.046V29.5349C192.046 27.0401 190.382 25.6474 188.232 25.6474ZM176.645 27.6658H173.978V22.8482H176.645C178.046 22.8482 178.842 24.1467 178.842 25.2569C178.842 26.3461 178.046 27.6658 176.645 27.6658ZM176.596 20.892H172.104V34.9469H173.978V29.6219H176.596C178.674 29.6219 180.717 27.9386 180.717 25.2569C180.717 22.5754 178.674 20.892 176.596 20.892ZM152.098 33.3531C150.803 33.3531 149.718 32.1397 149.718 30.473C149.718 28.7889 150.803 27.557 152.098 27.557C153.377 27.557 154.38 28.7888 154.38 30.473C154.38 32.1397 153.377 33.3531 152.098 33.3531H152.098ZM154.251 26.7419H154.186C153.765 26.1805 152.955 25.6734 151.936 25.6734C149.799 25.6734 147.84 27.7743 147.84 30.473C147.84 33.1538 149.799 35.2368 151.936 35.2368C152.955 35.2368 153.765 34.7295 154.186 34.1502H154.251V34.8384C154.251 36.6681 153.377 37.6461 151.968 37.6461C150.819 37.6461 150.107 36.722 149.815 35.9434L148.18 36.7041C148.65 37.9719 149.896 39.5297 151.968 39.5297C154.17 39.5297 156.032 38.0804 156.032 34.5486V25.9632H154.251V26.7419ZM157.326 34.9469H159.204V20.8915H157.326V34.9469ZM161.973 30.3101C161.924 28.4625 163.251 27.5209 164.206 27.5209C164.952 27.5209 165.583 27.9372 165.793 28.5355L161.973 30.3101ZM167.8 28.7163C167.444 27.6474 166.359 25.6734 164.142 25.6734C161.94 25.6734 160.111 27.6114 160.111 30.4551C160.111 33.1358 161.924 35.2368 164.352 35.2368C166.311 35.2368 167.445 33.8964 167.914 33.1177L166.457 32.0307C165.971 32.8278 165.307 33.3531 164.352 33.3531C163.397 33.3531 162.717 32.8639 162.28 31.9042L167.994 29.2596L167.8 28.7163ZM122.273 27.1406V29.1691H126.612C126.482 30.3101 126.142 31.1432 125.624 31.7229C124.993 32.4295 124.006 33.2082 122.273 33.2082C119.602 33.2082 117.514 30.7993 117.514 27.8107C117.514 24.8222 119.602 22.413 122.273 22.413C123.714 22.413 124.766 23.047 125.543 23.8621L126.822 22.4314C125.738 21.2719 124.297 20.3844 122.273 20.3844C118.615 20.3844 115.539 23.7172 115.539 27.8107C115.539 31.9042 118.615 35.2368 122.273 35.2368C124.248 35.2368 125.738 34.5126 126.903 33.1538C128.101 31.8134 128.474 29.9298 128.474 28.4085C128.474 27.9372 128.441 27.5029 128.376 27.1406H122.273ZM133.406 33.3531C132.11 33.3531 130.993 32.1576 130.993 30.4551C130.993 28.7343 132.11 27.557 133.406 27.557C134.701 27.557 135.818 28.7343 135.818 30.4551C135.818 32.1577 134.701 33.3531 133.406 33.3531ZM133.406 25.6734C131.042 25.6734 129.116 27.6838 129.116 30.4551C129.116 33.2082 131.042 35.2368 133.406 35.2368C135.769 35.2368 137.695 33.2082 137.695 30.4551C137.695 27.6838 135.769 25.6734 133.406 25.6734ZM142.764 33.3531C141.469 33.3531 140.352 32.1576 140.352 30.4551C140.352 28.7343 141.469 27.557 142.764 27.557C144.059 27.557 145.176 28.7343 145.176 30.4551C145.176 32.1577 144.059 33.3531 142.764 33.3531H142.764ZM142.764 25.6734C140.4 25.6734 138.474 27.6838 138.474 30.4551C138.474 33.2082 140.4 35.2368 142.764 35.2368C145.127 35.2368 147.054 33.2082 147.054 30.4551C147.054 27.6838 145.127 25.6734 142.764 25.6734H142.764Z" fill="white"/>
<path d="M84.8578 9.77594C84.5206 10.1164 84.3193 10.6841 84.3193 11.4378V11.2674V36.1378V35.974C84.3193 36.67 84.492 37.2076 84.7844 37.5537L84.859 37.6337V37.634C85.0957 37.873 85.3991 37.9998 85.7469 37.9994C86.0867 37.9994 86.4691 37.8782 86.8726 37.6222L101.458 28.3499L106.468 25.1646C107.104 24.7602 107.461 24.2384 107.521 23.707V23.7048C107.461 23.1721 107.104 22.6508 106.468 22.2463L101.457 19.0614L86.8727 9.78908C86.4683 9.53265 86.0857 9.41098 85.7449 9.41098C85.3975 9.41098 85.0945 9.53745 84.8579 9.77594H84.8578Z" fill="#00C1FF"/>
<path d="M84.859 37.6332L84.7844 37.5532C84.492 37.2071 84.3193 36.6696 84.3193 35.9735V36.1373V11.2731V11.4373C84.3193 10.6836 84.5206 10.1159 84.8578 9.77546L97.3074 23.7048L84.859 37.6332Z" fill="url(#paint0_linear_72_19602)"/>
<path d="M101.458 28.3498L97.3076 23.7052L101.458 19.0613L106.468 22.2462C107.104 22.6507 107.461 23.172 107.521 23.7047V23.7069C107.461 24.2383 107.104 24.7601 106.468 25.1645L101.458 28.3498" fill="url(#paint1_linear_72_19602)"/>
<path d="M85.7472 37.9991C85.3994 37.9994 85.096 37.8725 84.8594 37.6336V37.6332L97.3078 23.7048L101.458 28.3495L86.8729 37.6218C86.4694 37.8778 86.087 37.9991 85.7472 37.9991Z" fill="url(#paint2_linear_72_19602)"/>
<path d="M97.3071 23.7054L84.8574 9.77607C85.0941 9.53757 85.3971 9.4111 85.7445 9.4111C86.0852 9.4111 86.4679 9.53272 86.8722 9.7892L101.457 19.0615L97.307 23.7054" fill="url(#paint3_linear_72_19602)"/>
<path d="M85.748 38.1643C85.4003 38.1643 85.0964 38.0374 84.8597 37.7985L84.8593 37.7989C84.8584 37.7978 84.8573 37.7968 84.8562 37.7959L84.7915 37.7251C84.7895 37.7229 84.7876 37.7203 84.7852 37.7177L84.8598 37.6342C85.0964 37.8731 85.3999 38 85.7477 37.9996C86.0875 37.9996 86.4698 37.8784 86.8733 37.6224L101.459 28.3501L101.552 28.4547L101.457 28.5148L86.8733 37.7866C86.5056 38.0198 86.1558 38.1415 85.8398 38.1617C85.8093 38.1634 85.7786 38.1642 85.748 38.1643" fill="url(#paint4_linear_72_19602)"/>
<path d="M84.7844 37.7172C84.492 37.371 84.3193 36.8339 84.3193 36.1375V35.9736C84.3193 36.6697 84.492 37.2072 84.7844 37.5534L84.859 37.6333L84.7844 37.7172Z" fill="url(#paint5_linear_72_19602)"/>
<path d="M101.551 28.4537L101.458 28.3491L106.468 25.1638C107.104 24.7595 107.461 24.2377 107.521 23.7062C107.521 23.9012 107.482 24.0962 107.405 24.286C107.249 24.6685 106.937 25.0299 106.468 25.3281L101.551 28.4538" fill="url(#paint6_linear_72_19602)"/>
<path d="M107.522 23.705C107.462 23.1723 107.105 22.651 106.468 22.2465L101.458 19.0616L101.551 18.957H101.552L106.468 22.0827C107.17 22.5289 107.521 23.1169 107.522 23.705Z" fill="url(#paint7_linear_72_19602)"/>
<path d="M84.3193 11.4373V11.2656C84.3193 11.2036 84.3208 11.143 84.3237 11.0842V11.0815C84.3237 11.0807 84.3237 11.0799 84.3239 11.079V11.0723C84.3542 10.4728 84.5206 10.0052 84.7844 9.69292L84.8578 9.77543C84.5206 10.1159 84.3193 10.6837 84.3193 11.4373Z" fill="url(#paint8_linear_72_19602)"/>
<path d="M101.457 19.0612L86.8724 9.78879C86.468 9.53236 86.0854 9.41074 85.7447 9.41074C85.3973 9.41074 85.0942 9.53721 84.8576 9.7757L84.7842 9.69314C84.8071 9.66597 84.831 9.63976 84.8556 9.61457C84.8564 9.61366 84.8576 9.61275 84.8584 9.61189C85.0932 9.37522 85.393 9.24874 85.7373 9.24647H85.7447C86.0854 9.24647 86.468 9.36814 86.8724 9.62467L101.551 18.9562L101.551 18.9566L101.457 19.0612Z" fill="url(#paint9_linear_72_19602)"/>
<defs>
<filter id="filter0_dddddd_72_19602" x="0.045311" y="0.015141" width="284.158" height="213.245" filterUnits="userSpaceOnUse" color-interpolation-filters="sRGB">
<feFlood flood-opacity="0" result="BackgroundImageFix"/>
<feColorMatrix in="SourceAlpha" type="matrix" values="0 0 0 0 0 0 0 0 0 0 0 0 0 0 0 0 0 0 127 0" result="hardAlpha"/>
<feOffset dy="1.71883"/>
<feGaussianBlur stdDeviation="1.46101"/>
<feColorMatrix type="matrix" values="0 0 0 0 0.219608 0 0 0 0 0.219608 0 0 0 0 0.219608 0 0 0 0.0240741 0"/>
<feBlend mode="normal" in2="BackgroundImageFix" result="effect1_dropShadow_72_19602"/>
<feColorMatrix in="SourceAlpha" type="matrix" values="0 0 0 0 0 0 0 0 0 0 0 0 0 0 0 0 0 0 127 0" result="hardAlpha"/>
<feOffset dy="7.56286"/>
<feGaussianBlur stdDeviation="3.02514"/>
<feColorMatrix type="matrix" values="0 0 0 0 0.219608 0 0 0 0 0.219608 0 0 0 0 0.219608 0 0 0 0.0392593 0"/>
<feBlend mode="normal" in2="effect1_dropShadow_72_19602" result="effect2_dropShadow_72_19602"/>
<feColorMatrix in="SourceAlpha" type="matrix" values="0 0 0 0 0 0 0 0 0 0 0 0 0 0 0 0 0 0 127 0" result="hardAlpha"/>
<feOffset dy="18.5634"/>
<feGaussianBlur stdDeviation="6.0331"/>
<feColorMatrix type="matrix" values="0 0 0 0 0.219608 0 0 0 0 0.219608 0 0 0 0 0.219608 0 0 0 0.05 0"/>
<feBlend mode="normal" in2="effect2_dropShadow_72_19602" result="effect3_dropShadow_72_19602"/>
<feColorMatrix in="SourceAlpha" type="matrix" values="0 0 0 0 0 0 0 0 0 0 0 0 0 0 0 0 0 0 127 0" result="hardAlpha"/>
<feOffset dy="35.7517"/>
<feGaussianBlur stdDeviation="11.8256"/>
<feColorMatrix type="matrix" values="0 0 0 0 0.219608 0 0 0 0 0.219608 0 0 0 0 0.219608 0 0 0 0.0607407 0"/>
<feBlend mode="normal" in2="effect3_dropShadow_72_19602" result="effect4_dropShadow_72_19602"/>
<feColorMatrix in="SourceAlpha" type="matrix" values="0 0 0 0 0 0 0 0 0 0 0 0 0 0 0 0 0 0 127 0" result="hardAlpha"/>
<feOffset dy="60.1591"/>
<feGaussianBlur stdDeviation="21.7432"/>
<feColorMatrix type="matrix" values="0 0 0 0 0.219608 0 0 0 0 0.219608 0 0 0 0 0.219608 0 0 0 0.0759259 0"/>
<feBlend mode="normal" in2="effect4_dropShadow_72_19602" result="effect5_dropShadow_72_19602"/>
<feColorMatrix in="SourceAlpha" type="matrix" values="0 0 0 0 0 0 0 0 0 0 0 0 0 0 0 0 0 0 127 0" result="hardAlpha"/>
<feOffset dy="92.8169"/>
<feGaussianBlur stdDeviation="37.1268"/>
<feColorMatrix type="matrix" values="0 0 0 0 0.219608 0 0 0 0 0.219608 0 0 0 0 0.219608 0 0 0 0.1 0"/>
<feBlend mode="normal" in2="effect5_dropShadow_72_19602" result="effect6_dropShadow_72_19602"/>
<feBlend mode="normal" in="SourceGraphic" in2="effect6_dropShadow_72_19602" result="shape"/>
</filter>
<linearGradient id="paint0_linear_72_19602" x1="92.2754" y1="11.0103" x2="80.3615" y2="21.6927" gradientUnits="userSpaceOnUse">
<stop stop-color="#00A0FF"/>
<stop offset="0.00657" stop-color="#00A1FF"/>
<stop offset="0.2601" stop-color="#00BEFF"/>
<stop offset="0.5122" stop-color="#00D2FF"/>
<stop offset="0.7604" stop-color="#00DFFF"/>
<stop offset="1" stop-color="#00E3FF"/>
</linearGradient>
<linearGradient id="paint1_linear_72_19602" x1="108.296" y1="23.6249" x2="83.9826" y2="23.6249" gradientUnits="userSpaceOnUse">
<stop stop-color="#FFE000"/>
<stop offset="0.4087" stop-color="#FFBD00"/>
<stop offset="0.7754" stop-color="#FFA500"/>
<stop offset="1" stop-color="#FF9C00"/>
</linearGradient>
<linearGradient id="paint2_linear_72_19602" x1="99.2547" y1="28.1208" x2="79.082" y2="46.0762" gradientUnits="userSpaceOnUse">
<stop stop-color="#FF3A44"/>
<stop offset="1" stop-color="#C31162"/>
</linearGradient>
<linearGradient id="paint3_linear_72_19602" x1="81.6488" y1="7.71098" x2="90.6408" y2="15.727" gradientUnits="userSpaceOnUse">
<stop stop-color="#32A071"/>
<stop offset="0.0685" stop-color="#2DA771"/>
<stop offset="0.4762" stop-color="#15CF74"/>
<stop offset="0.8009" stop-color="#06E775"/>
<stop offset="1" stop-color="#00F076"/>
</linearGradient>
<linearGradient id="paint4_linear_72_19602" x1="99.246" y1="31.3432" x2="83.0777" y2="45.8404" gradientUnits="userSpaceOnUse">
<stop stop-color="#CC2E36"/>
<stop offset="1" stop-color="#9C0E4E"/>
</linearGradient>
<linearGradient id="paint5_linear_72_19602" x1="85.9778" y1="11.0104" x2="75.4818" y2="20.4216" gradientUnits="userSpaceOnUse">
<stop stop-color="#008DE0"/>
<stop offset="0.00657" stop-color="#008DE0"/>
<stop offset="0.2601" stop-color="#00A7E0"/>
<stop offset="0.5122" stop-color="#00B8E0"/>
<stop offset="0.7604" stop-color="#00C4E0"/>
<stop offset="1" stop-color="#00C7E0"/>
</linearGradient>
<linearGradient id="paint6_linear_72_19602" x1="108.296" y1="23.7052" x2="83.9826" y2="23.7052" gradientUnits="userSpaceOnUse">
<stop stop-color="#E0C500"/>
<stop offset="0.4087" stop-color="#E0A600"/>
<stop offset="0.7754" stop-color="#E09100"/>
<stop offset="1" stop-color="#E08900"/>
</linearGradient>
<linearGradient id="paint7_linear_72_19602" x1="108.297" y1="23.7061" x2="83.983" y2="23.7061" gradientUnits="userSpaceOnUse">
<stop stop-color="#FFE840"/>
<stop offset="0.4087" stop-color="#FFCE40"/>
<stop offset="0.7754" stop-color="#FFBC40"/>
<stop offset="1" stop-color="#FFB540"/>
</linearGradient>
<linearGradient id="paint8_linear_72_19602" x1="85.9675" y1="11.0294" x2="75.9072" y2="19.6592" gradientUnits="userSpaceOnUse">
<stop stop-color="#40B8FF"/>
<stop offset="0.00657" stop-color="#40B9FF"/>
<stop offset="0.2601" stop-color="#40CEFF"/>
<stop offset="0.5122" stop-color="#40DDFF"/>
<stop offset="0.7604" stop-color="#40E7FF"/>
<stop offset="1" stop-color="#40EAFF"/>
</linearGradient>
<linearGradient id="paint9_linear_72_19602" x1="81.6308" y1="10.6564" x2="88.8507" y2="17.1301" gradientUnits="userSpaceOnUse">
<stop stop-color="#65B895"/>
<stop offset="0.0685" stop-color="#62BD95"/>
<stop offset="0.4762" stop-color="#50DB97"/>
<stop offset="0.8009" stop-color="#44ED98"/>
<stop offset="1" stop-color="#40F498"/>
</linearGradient>
</defs>
</svg>
