<svg width="147" height="147" viewBox="0 0 147 147" fill="none" xmlns="http://www.w3.org/2000/svg">
<circle cx="73.4183" cy="73.7005" r="72.2944" stroke="url(#paint0_linear_77_108)" stroke-width="0.970395"/>
<circle cx="71.4758" cy="73.7004" r="48.0345" stroke="url(#paint1_linear_77_108)" stroke-width="0.970395"/>
<circle cx="72.0037" cy="74.283" r="23.4558" fill="black"/>
<path d="M80.7764 72.003C80.9598 71.474 81.0533 70.92 81.0534 70.3625C81.0534 69.4399 80.7974 68.5339 80.3118 67.7378C79.336 66.1072 77.5259 65.1005 75.5669 65.1005C75.181 65.1005 74.7961 65.1396 74.4187 65.2172C73.9111 64.6682 73.2881 64.2288 72.5907 63.9278C71.8932 63.6268 71.1373 63.4712 70.3726 63.4712H70.3383L70.3254 63.4713C67.9527 63.4713 65.8486 64.941 65.1192 67.1078C64.3642 67.2563 63.6509 67.5579 63.0271 67.9924C62.4033 68.4269 61.8834 68.9843 61.5022 69.6273C61.0181 70.4283 60.763 71.3378 60.7627 72.2638C60.7629 73.5653 61.2661 74.8203 62.1749 75.786C61.9915 76.315 61.8979 76.869 61.8978 77.4265C61.8979 78.3491 62.1539 79.2551 62.6395 80.0513C63.217 81.0165 64.0988 81.7806 65.1579 82.2336C66.217 82.6866 67.3985 82.805 68.5322 82.5717C69.0399 83.1207 69.663 83.5602 70.3604 83.8612C71.0579 84.1621 71.8139 84.3178 72.5786 84.3178H72.613L72.6269 84.3178C75.0009 84.3178 77.1044 82.8479 77.8338 80.6791C78.5888 80.5306 79.302 80.229 79.9258 79.7945C80.5496 79.36 81.0695 78.8026 81.4508 78.1596C81.9344 77.3593 82.189 76.4506 82.1889 75.5254C82.1887 74.224 81.6855 72.9689 80.7766 72.0033L80.7764 72.003ZM72.6143 82.955H72.6087C71.6588 82.9546 70.739 82.6347 70.0093 82.0508C70.0527 82.0284 70.0955 82.0051 70.1378 81.9809L74.4615 79.5834C74.5694 79.5244 74.6591 79.4391 74.7215 79.336C74.784 79.233 74.8169 79.1159 74.8169 78.9968V73.141L76.6444 74.154C76.654 74.1586 76.6623 74.1654 76.6685 74.1738C76.6747 74.1822 76.6786 74.1919 76.68 74.2021V79.0482C76.6775 81.2028 74.8588 82.9506 72.6143 82.955ZM63.871 79.37C63.5138 78.7772 63.3257 78.1045 63.3254 77.4197C63.3254 77.1963 63.3458 76.9724 63.3853 76.7523C63.4175 76.7708 63.4736 76.8037 63.5138 76.8259L67.8376 79.2235C67.9454 79.2839 68.0679 79.3157 68.1928 79.3157C68.3176 79.3157 68.4401 79.2838 68.5479 79.2233L73.8267 76.2972V78.3233L73.8268 78.3268C73.8268 78.3366 73.8244 78.3462 73.8199 78.3549C73.8154 78.3637 73.8088 78.3713 73.8006 78.3771L69.4298 80.7998C68.8113 81.1415 68.1103 81.3214 67.3967 81.3216C66.6824 81.3215 65.9806 81.1412 65.3618 80.7986C64.743 80.456 64.2289 79.9633 63.871 79.3698V79.37ZM62.7335 70.3085C63.2084 69.5167 63.9582 68.9104 64.8518 68.5958C64.8518 68.6315 64.8497 68.6948 64.8497 68.7388V73.534L64.8496 73.5379C64.8496 73.657 64.8824 73.7739 64.9448 73.8769C65.0071 73.9798 65.0967 74.0651 65.2045 74.124L70.4832 77.0497L68.6558 78.0627C68.6468 78.0684 68.6364 78.0719 68.6257 78.0728C68.6149 78.0738 68.6041 78.0721 68.5942 78.0681L64.2228 75.6434C63.6049 75.2997 63.0919 74.8062 62.7352 74.2122C62.3786 73.6182 62.1908 72.9447 62.1907 72.2591C62.191 71.5746 62.3782 70.9021 62.7337 70.3088L62.7335 70.3085ZM77.7485 73.6629L72.4697 70.7369L74.2972 69.7242C74.3062 69.7185 74.3166 69.715 74.3273 69.7141C74.3381 69.7131 74.3489 69.7148 74.3588 69.7188L78.7301 72.1415C79.3486 72.4846 79.8621 72.9779 80.2192 73.5718C80.5763 74.1657 80.7644 74.8394 80.7645 75.5251C80.7645 77.1618 79.7006 78.6264 78.101 79.1917V74.2531C78.1012 74.2512 78.1012 74.2493 78.1012 74.2475C78.1012 74.1289 78.0686 74.0124 78.0066 73.9097C77.9447 73.8071 77.8556 73.7219 77.7485 73.6629ZM79.5674 71.0347C79.5249 71.0097 79.4821 70.9852 79.439 70.9612L75.1153 68.5636C75.0075 68.5033 74.885 68.4715 74.7602 68.4714C74.6354 68.4715 74.5129 68.5033 74.4051 68.5636L69.1262 71.4897V69.4636L69.1261 69.4601C69.1261 69.4403 69.1359 69.4217 69.1524 69.4098L73.5232 66.9891C74.1415 66.647 74.8426 66.4668 75.5562 66.4668C77.8036 66.4668 79.6261 68.2164 79.6261 70.3739C79.626 70.5953 79.6064 70.8163 79.5674 71.0345V71.0347ZM68.1326 74.6459L66.3047 73.6329C66.2951 73.6283 66.2869 73.6215 66.2807 73.6131C66.2745 73.6047 66.2705 73.595 66.2692 73.5848V68.7386C66.2701 66.5823 68.0927 64.8341 70.3391 64.8341C71.2905 64.8343 72.2118 65.1543 72.9431 65.7385C72.9102 65.7557 72.8528 65.7862 72.8147 65.8084L68.491 68.2059C68.3831 68.2649 68.2934 68.3502 68.231 68.4532C68.1686 68.5561 68.1357 68.6732 68.1357 68.7923V68.7962L68.1326 74.6459ZM69.1254 72.5911L71.4765 71.2875L73.8275 72.5903V75.1966L71.4765 76.4995L69.1254 75.1966V72.5911Z" fill="white"/>
<defs>
<linearGradient id="paint0_linear_77_108" x1="114.175" y1="10.6248" x2="28.2949" y2="131.924" gradientUnits="userSpaceOnUse">
<stop stop-color="#001B79"/>
<stop offset="1" stop-color="#ED5AB3"/>
</linearGradient>
<linearGradient id="paint1_linear_77_108" x1="98.6469" y1="31.65" x2="41.3936" y2="112.516" gradientUnits="userSpaceOnUse">
<stop stop-color="#001B79"/>
<stop offset="1" stop-color="#ED5AB3"/>
</linearGradient>
</defs>
</svg>
