<svg width="60" height="60" viewBox="0 0 60 60" fill="none" xmlns="http://www.w3.org/2000/svg">
<path d="M28.648 46.4992C37.048 46.4992 43.798 39.7492 43.798 31.3492C43.798 22.9492 37.048 16.1992 28.648 16.1992C20.248 16.1992 13.498 22.9492 13.498 31.3492C13.498 39.7492 20.248 46.4992 28.648 46.4992Z" stroke="#1B223C" stroke-width="2.31178" stroke-miterlimit="10"/>
<path d="M28.649 38.7C32.699 38.7 35.999 35.4 35.999 31.35C35.999 27.3 32.699 24 28.649 24C24.599 24 21.299 27.3 21.2988 31.35C21.2988 35.4 24.599 38.7 28.649 38.7Z" stroke="#1B223C" stroke-width="2.31178" stroke-miterlimit="10"/>
<path d="M28.6484 31.3504L43.3484 16.6504" stroke="#1B223C" stroke-width="2.31178" stroke-miterlimit="10" stroke-linecap="round"/>
<path d="M49.6477 16.6496H43.3477V10.3496" stroke="#1B223C" stroke-width="2.31178" stroke-miterlimit="10"/>
</svg>
