<svg width="60" height="60" viewBox="0 0 60 60" fill="none" xmlns="http://www.w3.org/2000/svg">
<path d="M30.0009 20.0992C32.7009 20.0992 34.9509 17.8492 34.9509 15.1492C34.9509 12.4492 32.7009 10.1992 30.0009 10.1992C27.3009 10.1992 25.0509 12.4492 25.0508 15.1492C25.0508 17.8492 27.3009 20.0992 30.0009 20.0992Z" stroke="#1B223C" stroke-width="2.31178" stroke-miterlimit="10"/>
<path d="M34.9509 25.1992H25.0509C21.7509 25.1992 19.0509 27.8992 19.0508 31.1992V47.0992H40.9509V31.1992C40.9509 27.8992 38.2509 25.1992 34.9509 25.1992Z" stroke="#1B223C" stroke-width="2.31178" stroke-miterlimit="10"/>
<path d="M33.4523 38.2504L30.3023 41.8504L27.1523 38.2504L30.1523 27.4504C30.1523 27.3004 30.4523 27.3004 30.4523 27.4504L33.4523 38.2504Z" stroke="#1B223C" stroke-width="2.31178" stroke-miterlimit="10"/>
</svg>
