<svg width="60" height="60" viewBox="0 0 60 60" fill="none" xmlns="http://www.w3.org/2000/svg">
<path d="M41.252 30C40.352 33.6 39.002 37.2 39.002 37.2V49.2" fill="#1B223C"/>
<path d="M41.252 30C40.352 33.6 39.002 37.2 39.002 37.2V49.2" stroke="#1B223C" stroke-width="2.31178" stroke-miterlimit="10"/>
<path d="M28.0492 44.1008H20.5492L19.4992 39.1508L14.9992 37.6508C14.6992 37.5008 14.6992 37.3508 14.6992 37.0508L16.7992 32.1008C16.7992 32.1008 14.8492 28.6508 14.8492 26.8508C14.8492 23.4008 17.0992 15.4508 25.0492 13.8008" stroke="#1B223C" stroke-width="2.31178" stroke-miterlimit="10"/>
<path d="M35.1 23.8488V26.5488C35.1 26.8488 35.4 26.8488 35.55 26.6988L38.85 23.8488H46.8C48.3 23.8488 49.65 22.6488 49.65 21.1488V14.9988C49.65 13.4988 48.45 12.2988 46.8 12.2988H33.6C32.1 12.2988 30.75 13.4988 30.75 14.9988V21.1488C30.75 22.6488 31.95 23.8488 33.6 23.8488C33.45 23.8488 35.1 23.8488 35.1 23.8488Z" stroke="#1B223C" stroke-width="2.31178" stroke-miterlimit="10"/>
<path d="M42.45 23.8496H33.75" stroke="#1B223C" stroke-width="2.31178" stroke-miterlimit="10"/>
<path d="M25.5012 44.0996L25.2012 49.0496" stroke="#1B223C" stroke-width="2.31178" stroke-miterlimit="10"/>
</svg>
