<svg width="60" height="60" viewBox="0 0 60 60" fill="none" xmlns="http://www.w3.org/2000/svg">
<path d="M34.3508 22.05C34.9508 22.5 35.4008 22.95 36.0008 23.4C44.4008 30.9 48.4508 40.05 45.1508 43.65C41.8508 47.25 32.4008 44.1 24.0008 36.6C15.6008 29.1 11.5509 19.95 14.8509 16.35C16.8008 14.25 20.5508 14.4 25.0508 16.2C28.0508 17.4 31.3508 19.35 34.3508 22.05Z" stroke="#1B223C" stroke-width="2.31178" stroke-miterlimit="10"/>
<path d="M26.2508 21.4492C25.5008 22.0492 24.7508 22.6492 24.0008 23.3992C15.6008 30.8992 11.5509 40.0492 14.8509 43.6492C16.8008 45.7492 21.0008 45.5992 25.6508 43.4992" stroke="#1B223C" stroke-width="2.31178" stroke-miterlimit="10"/>
<path d="M33.1523 38.9997C34.0523 38.2497 35.1023 37.4997 36.0023 36.5997C44.4023 29.0997 48.4523 19.9497 45.1523 16.3497C43.2023 14.2497 39.1523 14.3997 34.5023 16.4997" stroke="#1B223C" stroke-width="2.31178" stroke-miterlimit="10"/>
<path d="M30.1523 32.6992C31.8023 32.6992 33.1523 31.3492 33.1523 29.6992C33.1523 28.0492 31.8023 26.6992 30.1523 26.6992C28.5023 26.6992 27.1523 28.0492 27.1523 29.6992C27.1523 31.3492 28.5023 32.6992 30.1523 32.6992Z" fill="#1B223C"/>
</svg>
