<svg width="59" height="59" viewBox="0 0 59 59" fill="none" xmlns="http://www.w3.org/2000/svg">
<path d="M54.3769 23.974C55.7058 19.9853 55.2482 15.6159 53.123 11.9878C49.9269 6.42304 43.5018 3.56012 37.2268 4.90738C34.4353 1.76256 30.4247 -0.0258437 26.22 -0.000216591C19.8059 -0.0148607 14.1148 4.11477 12.1416 10.2177C8.02108 11.0615 4.4644 13.6407 2.38311 17.2963C-0.836755 22.8464 -0.102721 29.8426 4.19897 34.6019C2.87002 38.5906 3.32765 42.96 5.45287 46.5881C8.64894 52.1528 15.074 55.0157 21.349 53.6685C24.1387 56.8133 28.1512 58.6017 32.3559 58.5742C38.7736 58.5907 44.4665 54.4574 46.4398 48.349C50.5603 47.5051 54.1169 44.926 56.1982 41.2704C59.4144 35.7203 58.6786 28.7296 54.3787 23.9703L54.3769 23.974ZM32.3595 54.7466C29.7913 54.7503 27.3037 53.8515 25.3322 52.2059C25.4219 52.1583 25.5775 52.0723 25.6782 52.01L37.3422 45.2737C37.9389 44.9351 38.305 44.2999 38.3013 43.6135V27.17L43.2309 30.0165C43.284 30.0421 43.3188 30.0933 43.3261 30.1519V43.7691C43.3188 49.8244 38.4148 54.7338 32.3595 54.7466ZM8.77524 44.6733C7.4884 42.4511 7.02528 39.8463 7.46643 37.3184C7.55247 37.3696 7.7044 37.463 7.8124 37.5252L19.4764 44.2615C20.0677 44.6074 20.7999 44.6074 21.3929 44.2615L35.6325 36.0388V41.7317C35.6361 41.7903 35.6087 41.847 35.5629 41.8836L23.7726 48.6913C18.5209 51.7153 11.8139 49.9177 8.77708 44.6733H8.77524ZM5.70548 19.2128C6.98684 16.9869 9.00955 15.2845 11.4185 14.4004C11.4185 14.5011 11.413 14.6786 11.413 14.8031V28.2775C11.4093 28.9621 11.7754 29.5973 12.3704 29.9359L26.6099 38.1567L21.6803 41.0032C21.6309 41.0361 21.5687 41.0416 21.5138 41.0178L9.72162 34.2047C4.48087 31.1697 2.68331 24.4645 5.70365 19.2146L5.70548 19.2128ZM46.2073 28.6381L31.9678 20.4154L36.8974 17.5708C36.9468 17.5379 37.009 17.5324 37.0639 17.5562L48.8561 24.3639C54.106 27.397 55.9053 34.1131 52.8722 39.363C51.589 41.5853 49.5681 43.2876 47.161 44.1736V30.2965C47.1665 29.6119 46.8022 28.9786 46.2091 28.6381H46.2073ZM51.1131 21.2538C51.027 21.2007 50.8751 21.1092 50.7671 21.047L39.1031 14.3107C38.5119 13.9647 37.7797 13.9647 37.1866 14.3107L22.947 22.5333V16.8405C22.9434 16.7819 22.9708 16.7251 23.0166 16.6885L34.8069 9.88636C40.0586 6.85687 46.7729 8.65992 49.8006 13.9135C51.0801 16.1321 51.5432 18.7295 51.1094 21.2538H51.1131ZM20.2672 31.4003L15.3358 28.5539C15.2827 28.5283 15.2479 28.477 15.2406 28.4184V14.8013C15.2443 8.73863 20.1628 3.82555 26.2255 3.82921C28.79 3.82921 31.2722 4.72982 33.2437 6.36995C33.154 6.41755 33.0002 6.50358 32.8977 6.56582L21.2337 13.3021C20.6369 13.6407 20.2708 14.2741 20.2745 14.9605L20.2672 31.3967V31.4003ZM22.9452 25.6269L29.2879 21.9641L35.6306 25.6251V32.9489L29.2879 36.61L22.9452 32.9489V25.6269Z" fill="white"/>
</svg>
